<svg width="2335" height="611" viewBox="0 0 2335 611" fill="none" xmlns="http://www.w3.org/2000/svg">
<path fill-rule="evenodd" clip-rule="evenodd" d="M995.799 231.667C967.85 231.667 943.675 243.111 928.846 262.204C915.727 241.717 893.645 231.667 867.76 231.667C843.939 231.667 823.243 239.998 809.416 255.948V234.454H758V421.177H811.833V327.459C811.833 294.135 828.756 278.511 852.577 278.511C874.983 278.511 887.778 292.416 887.778 322.597V421.177H941.611V327.459C941.611 294.135 958.534 278.511 982.679 278.511C1004.44 278.511 1017.91 292.416 1017.91 322.597V421.177H1071.74V314.266C1071.74 257.342 1039.99 231.667 995.799 231.667ZM1146.98 208.393C1167 208.393 1180.47 195.229 1180.47 177.174C1180.47 160.511 1167 148 1146.98 148C1126.96 148 1113.52 161.193 1113.52 178.211C1113.52 195.229 1126.96 208.393 1146.98 208.393ZM1120.06 421.177H1173.9V234.454H1120.06V421.177ZM1313.7 423.964C1352.7 423.964 1383.42 406.59 1396.87 376.734L1355.12 353.846C1345.1 371.872 1330.27 379.521 1313.34 379.521C1286.07 379.521 1264.67 360.428 1264.67 327.815C1264.67 295.173 1286.07 276.079 1313.34 276.079C1330.27 276.079 1345.1 284.084 1355.12 301.784L1396.87 279.222C1383.42 248.685 1352.7 231.667 1313.7 231.667C1253.29 231.667 1210.16 271.573 1210.16 327.815C1210.16 384.028 1253.29 423.964 1313.7 423.964ZM1479.36 259.091V234.454H1427.94V421.177H1481.77V333.004C1481.77 297.248 1501.47 280.942 1531.13 280.942C1535.28 280.942 1538.73 281.298 1543.21 281.653V231.667C1514.56 231.667 1492.47 241.035 1479.36 259.091ZM1661.96 423.964C1720.99 423.964 1763.76 384.028 1763.76 327.815C1763.76 271.573 1720.99 231.667 1661.96 231.667C1602.94 231.667 1559.78 271.573 1559.78 327.815C1559.78 384.028 1602.94 423.964 1661.96 423.964ZM1661.96 379.521C1635.02 379.521 1614.32 360.072 1614.32 327.815C1614.32 295.529 1635.02 276.079 1661.96 276.079C1688.88 276.079 1709.22 295.529 1709.22 327.815C1709.22 360.072 1688.88 379.521 1661.96 379.521ZM1852.47 379.521L1947.05 267.066V234.454H1786.91V276.079H1879.07L1784.49 388.534V421.177H1950.15V379.521H1852.47ZM2113.74 234.454L2061.29 361.14L2009.17 234.454H1953.6L2034.02 422.57L2033.34 424.29C2026.09 440.952 2017.81 447.564 2002.95 447.564C1992.25 447.564 1980.87 443.057 1972.58 435.764L1952.92 474.276C1965.01 485.039 1985.7 491.294 2004.69 491.294C2038.15 491.294 2063.71 477.745 2081.66 432.621L2165.51 234.454H2113.74ZM2247.32 423.964C2302.89 423.964 2335 399.297 2335 364.608C2335 291.022 2222.82 321.915 2222.82 289.955C2222.82 280.26 2233.17 272.611 2257.35 272.611C2274.24 272.611 2292.55 276.079 2310.83 286.486L2328.78 247.973C2311.18 237.567 2282.88 231.667 2257.35 231.667C2203.16 231.667 2171.41 256.66 2171.41 292.06C2171.41 366.684 2283.55 335.375 2283.55 366.002C2283.55 376.408 2274.24 382.99 2249.39 382.99C2226.63 382.99 2201.42 375.697 2184.85 364.935L2166.9 403.803C2184.17 415.277 2215.92 423.964 2247.32 423.964Z" fill="white"/>
<path d="M63.5907 0H227.214C244.401 0 260.056 7.08587 271.436 18.5004L271.731 18.7968C282.934 30.2113 289.891 45.8655 289.891 63.0317V227.608C289.891 244.952 282.845 260.725 271.495 272.139C271.23 272.406 270.935 272.643 270.64 272.91C259.348 283.85 244.018 290.64 227.214 290.64H63.5907C46.3439 290.64 30.6597 283.554 19.3093 272.139C7.95889 260.725 0.883301 244.952 0.883301 227.608V63.0317C0.883301 45.7469 7.95889 29.9741 19.3093 18.53V18.5004C30.6597 7.08587 46.3439 0 63.5907 0ZM227.214 26.2978H63.5907C53.5669 26.2978 44.3981 30.4485 37.7943 37.1193L37.7648 37.0897L37.7353 37.1193C31.1314 43.7308 27.0335 52.9217 27.0335 63.0317V227.608C27.0335 237.688 31.1609 246.879 37.7943 253.52C44.3981 260.191 53.5669 264.342 63.5907 264.342H227.214C236.972 264.342 245.875 260.458 252.42 254.173L253.01 253.52C259.614 246.879 263.741 237.688 263.741 227.608V63.0317C263.741 52.9217 259.643 43.7308 253.039 37.1193L253.01 37.06C246.406 30.4189 237.267 26.2978 227.214 26.2978Z" fill="white"/>
<path d="M590.456 19.3303C595.851 24.9931 600.273 31.6342 603.31 38.9869C606.376 46.4286 608.086 54.5818 608.086 63.0315V227.608C608.086 244.952 601.04 260.725 589.689 272.139C589.424 272.406 589.129 272.643 588.864 272.91C577.543 283.85 562.213 290.639 545.408 290.639H381.785C364.539 290.639 348.854 283.553 337.504 272.139C326.154 260.725 319.107 244.952 319.107 227.608V63.0315C319.107 54.5818 320.817 46.4286 323.883 38.9869C327.097 31.2488 331.755 24.2815 337.504 18.5002C342.604 13.371 350.889 13.371 355.989 18.5002L463.597 126.715L571.205 18.5002C576.305 13.4007 584.589 13.4007 589.689 18.5002C589.955 18.7966 590.22 19.0635 590.456 19.3303ZM579.194 49.0376L578.781 48.0889L472.854 154.614C467.754 159.743 459.469 159.743 454.339 154.614L348.412 48.0592L347.999 49.0376C346.23 53.3366 345.228 58.0506 345.228 63.0315V227.608C345.228 237.688 349.356 246.879 355.989 253.52C362.622 260.191 371.762 264.342 381.785 264.342H545.408C555.196 264.342 564.07 260.458 570.615 254.172L571.205 253.52C577.838 246.879 581.936 237.688 581.936 227.608V63.0315C581.936 58.0506 580.963 53.3366 579.194 49.0376Z" fill="white"/>
<path d="M63.5907 319.993H227.214C244.401 319.993 260.056 327.109 271.436 338.523L271.465 338.553H271.495L271.731 338.82C282.934 350.234 289.891 365.888 289.891 383.055V547.601C289.891 564.945 282.845 580.718 271.495 592.132C271.23 592.399 270.935 592.666 270.64 592.903C259.348 603.873 244.018 610.633 227.214 610.633H63.5907C46.3439 610.633 30.6597 603.547 19.3093 592.132C7.95889 580.718 0.883301 564.945 0.883301 547.601V383.055C0.883301 365.74 7.95889 349.967 19.3093 338.553V338.523C30.6597 327.109 46.3439 319.993 63.5907 319.993ZM227.214 346.291H63.5907C53.5669 346.291 44.3981 350.442 37.7943 357.112L37.7648 357.083L37.7353 357.112C31.1314 363.724 27.0335 372.915 27.0335 383.055V547.601C27.0335 557.681 31.1609 566.872 37.7943 573.543C44.3981 580.184 53.5669 584.335 63.5907 584.335H227.214C236.972 584.335 245.875 580.451 252.42 574.166L253.01 573.543C259.614 566.872 263.741 557.681 263.741 547.601V383.055C263.741 372.915 259.643 363.724 253.039 357.112L253.01 357.053C246.406 350.412 237.267 346.291 227.214 346.291Z" fill="white"/>
<path d="M381.785 319.993H545.408C562.596 319.993 578.28 327.109 589.631 338.523L589.66 338.553H589.689L589.925 338.82C601.128 350.234 608.086 365.888 608.086 383.055V547.601C608.086 564.945 601.04 580.718 589.689 592.132C589.424 592.399 589.129 592.666 588.864 592.903C577.543 603.873 562.213 610.633 545.408 610.633H381.785C364.539 610.633 348.854 603.547 337.504 592.132C326.154 580.718 319.107 564.945 319.107 547.601V383.055C319.107 365.74 326.154 349.967 337.533 338.553L337.504 338.523C348.854 327.109 364.539 319.993 381.785 319.993ZM545.408 346.291H381.785C371.762 346.291 362.622 350.442 355.989 357.112L355.959 357.083L355.93 357.112C349.356 363.724 345.228 372.915 345.228 383.055V547.601C345.228 557.681 349.356 566.872 355.989 573.543C362.622 580.184 371.762 584.335 381.785 584.335H545.408C555.196 584.335 564.07 580.451 570.615 574.166L571.205 573.543C577.838 566.872 581.936 557.681 581.936 547.601V383.055C581.936 372.915 577.838 363.724 571.263 357.112L571.205 357.053C564.601 350.412 555.491 346.291 545.408 346.291Z" fill="white"/>
</svg>
