<svg width="24" height="24" viewBox="0 0 24 24" fill="none" xmlns="http://www.w3.org/2000/svg">
<g clip-path="url(#clip0_233_25)">
<path d="M12 0C9.62663 0 7.30655 0.703788 5.33316 2.02236C3.35977 3.34094 1.8217 5.21509 0.913451 7.4078C0.00519943 9.60051 -0.232441 12.0133 0.230582 14.3411C0.693605 16.6689 1.83649 18.8071 3.51472 20.4853C5.19295 22.1635 7.33115 23.3064 9.65892 23.7694C11.9867 24.2324 14.3995 23.9948 16.5922 23.0866C18.7849 22.1783 20.6591 20.6402 21.9776 18.6668C23.2962 16.6935 24 14.3734 24 12C23.9966 8.81846 22.7312 5.76821 20.4815 3.51852C18.2318 1.26883 15.1815 0.00344108 12 0V0ZM12 22C10.0222 22 8.08879 21.4135 6.4443 20.3147C4.79981 19.2159 3.51809 17.6541 2.76121 15.8268C2.00433 13.9996 1.8063 11.9889 2.19215 10.0491C2.578 8.10929 3.53041 6.32746 4.92894 4.92893C6.32746 3.53041 8.10929 2.578 10.0491 2.19215C11.9889 1.8063 13.9996 2.00433 15.8268 2.7612C17.6541 3.51808 19.2159 4.79981 20.3147 6.4443C21.4135 8.08879 22 10.0222 22 12C21.9971 14.6513 20.9426 17.1931 19.0679 19.0679C17.1931 20.9426 14.6513 21.9971 12 22V22Z" fill="#CE0000"/>
<path d="M16.707 7.29308C16.5195 7.10561 16.2652 7.00029 16 7.00029C15.7349 7.00029 15.4805 7.10561 15.293 7.29308L12 10.5861L8.70702 7.29308C8.61477 7.19757 8.50443 7.12139 8.38242 7.06898C8.26042 7.01657 8.1292 6.98898 7.99642 6.98783C7.86364 6.98668 7.73196 7.01198 7.60907 7.06226C7.48617 7.11254 7.37452 7.18679 7.28062 7.28069C7.18673 7.37458 7.11248 7.48623 7.0622 7.60913C7.01192 7.73202 6.98662 7.8637 6.98777 7.99648C6.98892 8.12926 7.01651 8.26048 7.06892 8.38249C7.12133 8.50449 7.19751 8.61483 7.29302 8.70708L10.586 12.0001L7.29302 15.2931C7.19751 15.3853 7.12133 15.4957 7.06892 15.6177C7.01651 15.7397 6.98892 15.8709 6.98777 16.0037C6.98662 16.1365 7.01192 16.2681 7.0622 16.391C7.11248 16.5139 7.18673 16.6256 7.28062 16.7195C7.37452 16.8134 7.48617 16.8876 7.60907 16.9379C7.73196 16.9882 7.86364 17.0135 7.99642 17.0123C8.1292 17.0112 8.26042 16.9836 8.38242 16.9312C8.50443 16.8788 8.61477 16.8026 8.70702 16.7071L12 13.4141L15.293 16.7071C15.4816 16.8892 15.7342 16.99 15.9964 16.9878C16.2586 16.9855 16.5094 16.8803 16.6948 16.6949C16.8802 16.5095 16.9854 16.2587 16.9877 15.9965C16.99 15.7343 16.8892 15.4817 16.707 15.2931L13.414 12.0001L16.707 8.70708C16.8945 8.51955 16.9998 8.26525 16.9998 8.00008C16.9998 7.73492 16.8945 7.48061 16.707 7.29308Z" fill="#CE0000"/>
</g>
<defs>
<clipPath id="clip0_233_25">
<rect width="24" height="24" fill="white"/>
</clipPath>
</defs>
</svg>
