<svg width="49" height="49" viewBox="0 0 49 49" fill="none" xmlns="http://www.w3.org/2000/svg">
<path d="M45.7846 24.5059C46.8157 22.4505 47.6273 20.3843 48.1906 18.3483C49.957 11.9691 49.1017 6.62732 45.7816 3.30762C42.4619 -0.0120852 37.1201 -0.867806 30.7409 0.89859C28.705 1.46197 26.6387 2.27395 24.5834 3.30463C22.0263 2.02123 19.4655 1.08215 16.9981 0.541198C11.2672 -0.714905 6.43678 0.267547 3.39709 3.30762C1.44601 5.25869 0.3144 8.00006 0.125237 11.2356C-0.0448608 14.1464 0.545059 17.4866 1.8307 20.9275C0.774971 21.7622 0.0957031 23.0527 0.0957031 24.4999C0.0957031 25.947 0.774971 27.2375 1.8307 28.0723C0.545059 31.5131 -0.0448608 34.8538 0.125237 37.7641C0.314774 40.9997 1.44601 43.7411 3.39709 45.6921C5.57583 47.8713 8.63272 48.9946 12.3251 48.9946C13.0665 48.9946 13.8336 48.9494 14.6246 48.8582C17.7907 48.4929 21.1736 47.4144 24.5882 45.6974C26.6421 46.7273 28.7068 47.5382 30.7409 48.1012C32.9118 48.7023 34.9627 48.9999 36.8547 48.9999C40.5217 48.9999 43.5917 47.8821 45.7816 45.6921C48.8217 42.6524 49.8041 37.8221 48.548 32.0907C48.0071 29.6237 47.068 27.0629 45.7846 24.5059V24.5059ZM31.1245 2.28442C36.9829 0.662323 41.8271 1.38683 44.7648 4.32446C47.7024 7.2621 48.4269 12.1063 46.8048 17.9648C46.3506 19.6059 45.7267 21.2695 44.9506 22.9316C43.5599 20.4377 41.8496 17.9666 39.8678 15.6096C40.4749 14.8357 40.8383 13.8619 40.8383 12.8043C40.8383 11.7818 40.5075 10.8158 39.8809 10.0106L38.7459 10.8932C39.1744 11.4439 39.4005 12.1048 39.4005 12.8043C39.4005 14.5225 38.0027 15.9199 36.2849 15.9199C34.5671 15.9199 33.1694 14.5225 33.1694 12.8043C33.1694 11.0861 34.5671 9.6887 36.2849 9.6887C36.8457 9.6887 37.3956 9.83898 37.8745 10.1238L38.6095 8.88793C37.9082 8.4711 37.1044 8.25053 36.2849 8.25053C35.2273 8.25053 34.2535 8.61428 33.48 9.2214C31.1226 7.23967 28.6515 5.52935 26.1576 4.13829C27.8197 3.36257 29.4833 2.73863 31.1245 2.28442V2.28442ZM4.41393 4.32446C8.3015 0.436897 15.4299 0.581947 23.0151 4.13418C19.3122 6.19927 15.6804 8.96457 12.367 12.2775C9.91013 14.7344 7.74784 17.3734 5.93135 20.1282C5.522 20.0093 5.09133 19.9461 4.64945 19.9461C4.10551 19.9461 3.58401 20.0426 3.09988 20.2179C0.608612 13.4278 1.07516 7.66286 4.41393 4.32446ZM12.3625 47.5516C9.10974 47.5516 6.34444 46.6058 4.41356 44.6753C1.07516 41.3369 0.608238 35.5723 3.09988 28.7818C3.58401 28.9575 4.10551 29.0536 4.64945 29.0536C5.09395 29.0536 5.52312 28.9882 5.92986 28.8689C7.74635 31.6249 9.90939 34.2646 12.367 36.7222C15.6792 40.0341 19.31 42.7986 23.0117 44.8637C19.2094 46.6432 15.5514 47.552 12.3625 47.5516V47.5516ZM24.5852 44.0813C20.7014 42.0412 16.8662 39.1873 13.3839 35.7054C11.044 33.3651 8.98002 30.8574 7.23979 28.242C8.42487 27.4192 9.20283 26.0491 9.20283 24.5003C9.20283 24.3653 9.19722 24.2288 9.18526 24.0946L7.7527 24.2214C7.76093 24.3133 7.76504 24.4068 7.76504 24.4999C7.76504 26.218 6.36725 27.6155 4.64945 27.6155C2.93166 27.6155 1.53387 26.218 1.53387 24.4999C1.53387 22.7817 2.93166 21.3843 4.64945 21.3843C5.83602 21.3843 6.90408 22.0437 7.43643 23.1051L8.72169 22.4606C8.37029 21.7596 7.85812 21.1791 7.24278 20.7525C8.98264 18.1394 11.0455 15.6328 13.3839 13.2944C16.8669 9.81132 20.7037 6.95667 24.5886 4.91663C27.2328 6.30843 29.908 8.10287 32.4998 10.276C32.0146 10.9998 31.7312 11.8693 31.7312 12.8043C31.7312 15.315 33.7742 17.3577 36.2849 17.3577C37.2199 17.3577 38.0895 17.0743 38.8132 16.589C40.9864 19.1809 42.7804 21.8565 44.1722 24.5003C42.1322 28.3852 39.2775 32.2219 35.7948 35.7054C35.4117 36.0882 35.018 36.4687 34.6202 36.8415C33.8266 36.1701 32.8019 35.7641 31.6833 35.7641C30.6609 35.7641 29.6949 36.0953 28.8896 36.7215L29.7726 37.8564C30.3229 37.4284 30.9839 37.2022 31.6833 37.2019C33.4011 37.2019 34.7989 38.5996 34.7989 40.3174C34.7989 42.0356 33.4011 43.433 31.6833 43.433C29.9655 43.433 28.5678 42.0356 28.5678 40.3174C28.5678 39.7567 28.718 39.2071 29.0029 38.7282L27.767 37.9929C27.3502 38.6942 27.1296 39.498 27.1296 40.3174C27.1296 41.0389 27.2989 41.7208 27.5988 42.3276C26.5913 42.9706 25.5849 43.5553 24.5852 44.0813V44.0813ZM44.7648 44.6753C41.8271 47.6133 36.9829 48.3374 31.1245 46.7157C29.4844 46.2615 27.8223 45.6383 26.1613 44.863C26.9187 44.4398 27.6765 43.9856 28.4321 43.5018C29.2594 44.3459 30.4108 44.8712 31.6833 44.8712C34.1941 44.8712 36.2371 42.8285 36.2371 40.3178C36.2371 39.4434 35.9889 38.6266 35.5601 37.932C35.984 37.5353 36.4034 37.1301 36.8113 36.7222C40.1247 33.4085 42.8896 29.7766 44.955 26.0737C48.5073 33.6593 48.6523 40.7877 44.7648 44.6753V44.6753Z" fill="black"/>
<path d="M36.3807 31.9296H34.895V28.3067C34.895 26.7045 33.818 25.2816 32.2759 24.8465L31.7383 24.6951L31.348 26.079L31.8856 26.2308C32.8105 26.4917 33.4568 27.3452 33.4568 28.3067V31.9296H30.8684V29.9643H29.4306V31.9296H22.9594V33.3674H36.3807V31.9296Z" fill="black"/>
<path d="M26.9673 24.8434L29.964 25.6891L30.3547 24.3047L27.4174 23.4763V21.5667C28.7472 20.6598 29.6223 19.1334 29.6223 17.4059V15.2967C29.6223 12.5217 27.3647 10.2637 24.5893 10.2637C21.8143 10.2637 19.5563 12.5217 19.5563 15.2967V17.4059C19.5563 19.1334 20.4315 20.6598 21.7612 21.5667V23.4763L16.9028 24.8464C15.3607 25.2816 14.2837 26.7044 14.2837 28.3067V31.9296H12.798V33.3674H21.5216V31.9296H19.7481V29.9643H18.3103V31.9296H15.7218V28.3067C15.7218 27.3452 16.3682 26.4917 17.2931 26.2308L22.2113 24.8438C22.817 25.5063 23.6723 25.8902 24.5893 25.8902C25.5064 25.8902 26.3621 25.5059 26.9673 24.8434V24.8434ZM24.5893 11.7018C26.5714 11.7018 28.1842 13.3146 28.1842 15.2971V16.0978L26.6727 14.0985H21.2005C21.6951 12.7037 23.0271 11.7018 24.5893 11.7018ZM20.9945 17.4059V15.5367H25.9572L28.0649 18.324C27.6578 19.8631 26.254 21.0007 24.5893 21.0007C22.6072 21.0007 20.9945 19.388 20.9945 17.4059ZM23.1994 23.7885V22.2419C23.6409 22.3694 24.1071 22.4389 24.5893 22.4389C25.0716 22.4389 25.5374 22.3694 25.9793 22.2419V23.7885C25.6413 24.2068 25.1351 24.452 24.5893 24.452C24.0435 24.452 23.537 24.2068 23.1994 23.7885Z" fill="black"/>
<path d="M28.3869 28.232L26.3614 27.6608L26.7521 26.2769L28.7771 26.8481L28.3869 28.232Z" fill="black"/>
<path d="M31.5435 27.6259L31.1529 29.0098L29.7689 28.6196L30.1596 27.2356L31.5435 27.6259Z" fill="black"/>
<path d="M35.5661 12.0854H37.0039V13.5236H35.5661V12.0854Z" fill="black"/>
<path d="M30.9645 39.5989H32.4023V41.0367H30.9645V39.5989Z" fill="black"/>
<path d="M3.93018 23.781H5.36834V25.2188H3.93018V23.781Z" fill="black"/>
</svg>
