<svg width="46" height="42" viewBox="0 0 46 42" fill="none" xmlns="http://www.w3.org/2000/svg">
<path d="M18.9423 29.6573C18.6429 29.358 18.1576 29.358 17.8583 29.6573L14.0252 33.4904C13.7259 33.7898 13.7259 34.2751 14.0252 34.5744L17.8583 38.4076C18.1591 38.6981 18.6373 38.694 18.9329 38.3982C19.2287 38.1025 19.2328 37.6244 18.9423 37.3236L15.6511 34.0324L18.9423 30.7413C19.2415 30.442 19.2415 29.9566 18.9423 29.6573V29.6573Z" fill="black"/>
<path d="M28.1417 29.6574C27.8409 29.3668 27.3627 29.3709 27.0671 29.6667C26.7714 29.9624 26.7672 30.4406 27.0577 30.7413L30.3489 34.0325L27.0577 37.3236C26.8585 37.5162 26.7785 37.8011 26.8487 38.0692C26.9188 38.3373 27.1282 38.5466 27.3961 38.6167C27.6642 38.6868 27.9492 38.6069 28.1417 38.4076L31.9749 34.5745C32.2741 34.2751 32.2741 33.7898 31.9749 33.4905L28.1417 29.6574Z" fill="black"/>
<path d="M24.8177 29.4871C24.6288 29.4117 24.4176 29.4143 24.2308 29.4945C24.0438 29.5747 23.8965 29.7259 23.8211 29.9149L20.7547 37.581C20.6792 37.7699 20.6818 37.9811 20.762 38.168C20.8422 38.3549 20.9934 38.5022 21.1824 38.5776C21.2727 38.6139 21.3693 38.6324 21.4668 38.6321C21.7805 38.6322 22.0626 38.4412 22.179 38.1499L25.2454 30.4837C25.3209 30.2949 25.3183 30.0837 25.238 29.8968C25.1578 29.7098 25.0066 29.5625 24.8177 29.4871Z" fill="black"/>
<path d="M38.9986 16.4132C39.9373 15.3395 40.5007 13.9894 40.6039 12.567H41.0156C42.4975 12.567 43.6988 11.3657 43.6988 9.88383C43.6988 8.40194 42.4975 7.20062 41.0156 7.20062H40.6322V6.93227C40.6276 3.2718 37.6614 0.305607 34.001 0.301025H33.4644C29.8039 0.305697 26.8377 3.27189 26.8331 6.93227V7.20062H26.4498C24.9679 7.20062 23.7666 8.40194 23.7666 9.88383C23.7666 11.3657 24.9679 12.567 26.4498 12.567H26.8614C26.9646 13.9894 27.528 15.3395 28.4668 16.4132C26.4729 16.4415 24.5779 17.2861 23.2239 18.7499C23.1434 18.838 23.0705 18.9331 22.9939 19.0259C22.9173 18.9354 22.8536 18.838 22.7754 18.7522C21.4214 17.2872 19.5257 16.4418 17.5309 16.4133C18.4703 15.3399 19.0347 13.9898 19.1385 12.5671H19.5501C21.032 12.5671 22.2333 11.3658 22.2333 9.88392C22.2333 8.40203 21.032 7.20071 19.5501 7.20071H19.1668V6.93236C19.1621 3.27189 16.1959 0.305697 12.5355 0.301115H11.9989C8.33854 0.305787 5.37235 3.27198 5.36767 6.93245V7.2008H4.98433C3.50245 7.2008 2.30113 8.40212 2.30113 9.88401C2.30113 11.3659 3.50245 12.5672 4.98433 12.5672H5.39597C5.49911 13.9896 6.06258 15.3397 7.0013 16.4134C5.00742 16.4417 3.11246 17.2862 1.75841 18.7501C0.593567 20.0753 -0.0331459 21.7886 0.00135211 23.5528V25.5996C0.00359808 26.2775 0.306983 26.9194 0.829304 27.3514C0.298987 27.9149 0.00296921 28.659 0.00135211 29.4328V38.6322C0.00135211 40.3258 1.37426 41.6987 3.06781 41.6987H42.9321C44.6257 41.6987 45.9986 40.3258 45.9986 38.6322V29.4328C45.9969 28.659 45.7009 27.9149 45.1706 27.3514C45.6929 26.9194 45.9963 26.2776 45.9986 25.5996V23.5528C46.0333 21.7895 45.4071 20.077 44.243 18.7521C42.8891 17.2871 40.9934 16.4417 38.9986 16.4132V16.4132ZM29.8996 17.9334H30.3726C31.1762 18.3589 32.0593 18.6132 32.9661 18.6801V19.8454L31.176 20.2118C30.8713 20.2754 30.5543 20.1963 30.3151 19.9972C30.0501 19.7809 29.8973 19.4562 29.8996 19.1141V17.9334ZM34.4993 18.6801C35.4057 18.6133 36.2883 18.3591 37.0913 17.9334H37.5658V19.114C37.5681 19.4561 37.4153 19.7809 37.1503 19.9971C36.9104 20.1978 36.5913 20.2768 36.2855 20.211L34.4992 19.8454V18.6801H34.4993ZM41.0156 8.73398C41.6507 8.73398 42.1655 9.24885 42.1655 9.88392C42.1655 10.519 41.6507 11.0338 41.0156 11.0338H40.6322V8.73398H41.0156ZM33.4644 1.83439H34.001C36.8154 1.83735 39.0961 4.11808 39.0991 6.93245V8.0487C37.6961 7.70192 36.5915 6.62161 36.2135 5.22678C36.1182 4.85296 35.76 4.60815 35.3771 4.65523C34.9943 4.7023 34.706 5.02653 34.7041 5.4123C34.712 5.76689 34.5575 6.10567 34.2847 6.33224C33.111 7.38326 30.0369 7.41929 28.3664 7.31121V6.93254C28.3693 4.11808 30.65 1.83735 33.4644 1.83439V1.83439ZM25.2999 9.88392C25.2999 9.24885 25.8147 8.73398 26.4498 8.73398H26.8331V11.0338H26.4498C25.8147 11.0338 25.2999 10.519 25.2999 9.88392ZM28.3663 11.8004V8.84592C30.0131 8.94861 33.6223 8.98086 35.3065 7.47364C35.3732 7.41381 35.4369 7.35254 35.4959 7.28884C36.296 8.55503 37.6149 9.40283 39.0991 9.60479V12.0687C39.0978 14.8837 36.8161 17.1655 34.001 17.1668H33.4644C30.6492 17.166 28.3672 14.884 28.3663 12.0687V11.8004ZM28.3663 17.9511V19.114C28.3641 19.9167 28.7247 20.6776 29.3476 21.1839C29.8045 21.5587 30.3766 21.7644 30.9675 21.7665C31.1419 21.7666 31.3158 21.7485 31.4865 21.7129L32.9661 21.4062V26.3663H27.5997V23.2999C27.5997 22.8764 27.2565 22.5333 26.8331 22.5333C26.4098 22.5333 26.0666 22.8764 26.0666 23.2999V26.3663H23.0001V23.5528C22.9664 22.1707 23.4506 20.8259 24.3578 19.7826C25.3976 18.6638 26.8399 18.0049 28.3663 17.9511V17.9511ZM22.1261 20.4303C21.6856 21.412 21.4607 22.4768 21.4667 23.5528V26.3662H19.9335V23.2998C19.9335 22.8764 19.5903 22.5332 19.1669 22.5332C18.7435 22.5332 18.4003 22.8764 18.4003 23.2998V26.3662H13.034V21.41L14.5097 21.7121C15.2666 21.8708 16.0547 21.6776 16.6525 21.1869C17.2762 20.6799 17.6369 19.9178 17.6338 19.114V17.9511C19.1607 18.005 20.6034 18.6646 21.6432 19.784C21.8225 19.9851 21.9841 20.2013 22.1261 20.4303ZM8.43413 17.9334H8.90713C9.71074 18.3589 10.5938 18.6132 11.5006 18.6801V19.8454L9.71056 20.2118C9.40582 20.2752 9.08887 20.1962 8.84963 19.9972C8.58461 19.7809 8.4318 19.4562 8.43413 19.1141V17.9334ZM15.6259 17.9334H16.1004V19.114C16.1027 19.4561 15.9499 19.7809 15.6849 19.9971C15.445 20.1978 15.1259 20.2768 14.8201 20.211L13.0339 19.8454V18.6801C13.9403 18.6133 14.8229 18.3591 15.6259 17.9334ZM19.5502 8.73398C20.1853 8.73398 20.7001 9.24885 20.7001 9.88392C20.7001 10.519 20.1853 11.0338 19.5502 11.0338H19.1669V8.73398H19.5502ZM11.999 1.83439H12.5356C15.35 1.83735 17.6307 4.11808 17.6337 6.93245V8.0487C16.2307 7.70192 15.1261 6.62161 14.7482 5.22678C14.6528 4.85296 14.2947 4.60815 13.9118 4.65523C13.5289 4.7023 13.2406 5.02653 13.2387 5.4123C13.2466 5.76689 13.0922 6.10567 12.8193 6.33224C11.6456 7.38326 8.57149 7.41929 6.90104 7.31121V6.93254C6.90391 4.11808 9.18464 1.83735 11.999 1.83439V1.83439ZM3.83449 9.88392C3.83449 9.24885 4.34935 8.73398 4.98442 8.73398H5.36776V11.0338H4.98442C4.34935 11.0338 3.83449 10.519 3.83449 9.88392ZM6.90095 11.8004V8.84592C8.54769 8.94861 12.1569 8.98086 13.8411 7.47364C13.9078 7.41381 13.9715 7.35254 14.0305 7.28884C14.8306 8.55503 16.1495 9.40283 17.6337 9.60479V12.0687C17.6324 14.8837 15.3507 17.1655 12.5356 17.1668H11.999C9.18383 17.166 6.90185 14.884 6.90095 12.0687V11.8004ZM1.53463 23.5528C1.50094 22.1706 1.98517 20.8258 2.89235 19.7825C3.93223 18.6638 5.37459 18.0049 6.90104 17.9511V19.114C6.89879 19.9167 7.2594 20.6776 7.88234 21.1839C8.33917 21.5587 8.91135 21.7644 9.50222 21.7665C9.6766 21.7666 9.85052 21.7485 10.0212 21.7129L11.5008 21.4062V26.3663H6.13436V23.2999C6.13436 22.8764 5.79108 22.5333 5.36776 22.5333C4.94445 22.5333 4.60117 22.8764 4.60117 23.2999V26.3663H2.30131C1.8779 26.3663 1.53472 26.0231 1.53472 25.5997V23.5528H1.53463ZM44.4654 38.6322C44.4654 39.479 43.7789 40.1655 42.9321 40.1655H3.06781C2.22099 40.1655 1.53454 39.479 1.53454 38.6322V29.4328C1.53454 28.586 2.22099 27.8995 3.06781 27.8995H42.9321C43.7789 27.8995 44.4654 28.586 44.4654 29.4328V38.6322ZM44.4654 25.5996C44.4654 26.023 44.1221 26.3662 43.6988 26.3662H41.3989V23.2998C41.3989 22.8764 41.0557 22.5332 40.6323 22.5332C40.209 22.5332 39.8657 22.8764 39.8657 23.2998V26.3662H34.4994V21.41L35.9752 21.7121C36.7333 21.8721 37.5231 21.6788 38.1217 21.1869C38.744 20.6792 39.1033 19.9172 39.0992 19.114V17.9511C40.6265 18.005 42.0695 18.6649 43.1094 19.7848C44.0157 20.8277 44.4993 22.1716 44.4655 23.5528V25.5996H44.4654Z" fill="black"/>
</svg>
