<svg width="24" height="24" viewBox="0 0 24 24" fill="none" xmlns="http://www.w3.org/2000/svg">
<g clip-path="url(#clip0_232_22)">
<path d="M12 0C9.62663 0 7.30655 0.703788 5.33316 2.02236C3.35977 3.34094 1.8217 5.21509 0.913451 7.4078C0.00519943 9.60051 -0.232441 12.0133 0.230582 14.3411C0.693605 16.6689 1.83649 18.8071 3.51472 20.4853C5.19295 22.1635 7.33115 23.3064 9.65892 23.7694C11.9867 24.2324 14.3995 23.9948 16.5922 23.0866C18.7849 22.1783 20.6591 20.6402 21.9776 18.6668C23.2962 16.6935 24 14.3734 24 12C23.9966 8.81846 22.7312 5.76821 20.4815 3.51852C18.2318 1.26883 15.1815 0.00344108 12 0V0ZM12 22C10.0222 22 8.08879 21.4135 6.4443 20.3147C4.79981 19.2159 3.51809 17.6541 2.76121 15.8268C2.00433 13.9996 1.8063 11.9889 2.19215 10.0491C2.578 8.10929 3.53041 6.32746 4.92894 4.92893C6.32746 3.53041 8.10929 2.578 10.0491 2.19215C11.9889 1.8063 13.9996 2.00433 15.8268 2.7612C17.6541 3.51808 19.2159 4.79981 20.3147 6.4443C21.4135 8.08879 22 10.0222 22 12C21.9971 14.6513 20.9426 17.1931 19.0679 19.0679C17.1931 20.9426 14.6513 21.9971 12 22V22Z" fill="#07B46B"/>
<path d="M16.293 8.29292L9.99998 14.5859L7.70698 12.2929C7.51838 12.1108 7.26578 12.01 7.00358 12.0122C6.74138 12.0145 6.49057 12.1197 6.30516 12.3051C6.11975 12.4905 6.01458 12.7413 6.01231 13.0035C6.01003 13.2657 6.11082 13.5183 6.29298 13.7069L9.29298 16.7069C9.48051 16.8944 9.73482 16.9997 9.99998 16.9997C10.2651 16.9997 10.5195 16.8944 10.707 16.7069L17.707 9.70692C17.8891 9.51832 17.9899 9.26571 17.9877 9.00352C17.9854 8.74132 17.8802 8.49051 17.6948 8.3051C17.5094 8.11969 17.2586 8.01452 16.9964 8.01224C16.7342 8.00997 16.4816 8.11076 16.293 8.29292V8.29292Z" fill="#07B46B"/>
</g>
<defs>
<clipPath id="clip0_232_22">
<rect width="24" height="24" fill="white"/>
</clipPath>
</defs>
</svg>
