<svg width="44" height="44" viewBox="0 0 44 44" fill="none" xmlns="http://www.w3.org/2000/svg">
<path d="M41.4062 0.4375H2.59375C2.02208 0.438154 1.47401 0.66554 1.06977 1.06977C0.66554 1.47401 0.438154 2.02208 0.4375 2.59375V33.5C0.438154 34.0717 0.66554 34.6197 1.06977 35.024C1.47401 35.4282 2.02208 35.6556 2.59375 35.6562H16.7465L14.9823 42.125H13.375V43.5625H30.625V42.125H29.0177L27.2535 35.6562H41.4062C41.9779 35.6556 42.526 35.4282 42.9302 35.024C43.3345 34.6197 43.5618 34.0717 43.5625 33.5V2.59375C43.5618 2.02208 43.3345 1.47401 42.9302 1.06977C42.526 0.66554 41.9779 0.438154 41.4062 0.4375V0.4375ZM27.5277 42.125H16.4723L18.2365 35.6562H25.7635L27.5277 42.125ZM42.125 33.5C42.1248 33.6906 42.049 33.8732 41.9142 34.008C41.7795 34.1427 41.5968 34.2185 41.4062 34.2188H2.59375C2.40319 34.2185 2.2205 34.1427 2.08576 34.008C1.95101 33.8732 1.87522 33.6906 1.875 33.5V30.625H42.125V33.5ZM14.8629 23.8262L15.9199 22.7691L18.0827 23.6295L20.3337 22.6968L21.2525 20.5625H22.7475L23.6663 22.6968L25.9173 23.6295L28.0801 22.7691L29.1371 23.8262L28.2767 25.9889L29.2095 28.24L31.3438 29.1588V29.1875H27.7035C27.5288 27.7981 26.8529 26.5202 25.8027 25.5938C24.7526 24.6674 23.4004 24.1562 22 24.1562C20.5996 24.1562 19.2474 24.6674 18.1973 25.5938C17.1471 26.5202 16.4712 27.7981 16.2965 29.1875H12.6562V29.1588L14.7905 28.24L15.7233 25.9889L14.8629 23.8262ZM26.2515 29.1875H17.7485C17.9182 28.1827 18.4383 27.2704 19.2166 26.6126C19.9948 25.9547 20.9809 25.5938 22 25.5938C23.0191 25.5938 24.0052 25.9547 24.7834 26.6126C25.5617 27.2704 26.0818 28.1827 26.2515 29.1875ZM42.125 29.1875H32.7812V28.2126L30.314 27.1505L29.8282 25.9779L30.8225 23.4786L28.4276 21.0838L25.9283 22.0781L24.7558 21.5922L23.6937 19.125H20.3063L19.2442 21.5922L18.0717 22.0781L15.5724 21.0838L13.1775 23.4786L14.1718 25.9779L13.686 27.1505L11.2188 28.2126V29.1875H1.875V2.59375C1.87522 2.40319 1.95101 2.2205 2.08576 2.08576C2.2205 1.95101 2.40319 1.87522 2.59375 1.875H41.4062C41.5968 1.87522 41.7795 1.95101 41.9142 2.08576C42.049 2.2205 42.1248 2.40319 42.125 2.59375V29.1875Z" fill="black"/>
<path d="M38.5313 11.2188C38.5313 9.65504 38.0676 8.12645 37.1988 6.82628C36.3301 5.5261 35.0953 4.51274 33.6506 3.91433C32.2059 3.31593 30.6162 3.15936 29.0826 3.46442C27.5489 3.76948 26.1401 4.52248 25.0344 5.62819C23.9287 6.7339 23.1757 8.14266 22.8707 9.67632C22.5656 11.21 22.7222 12.7997 23.3206 14.2443C23.919 15.689 24.9324 16.9238 26.2325 17.7926C27.5327 18.6613 29.0613 19.125 30.625 19.125H31.3438V11.9375H38.5313V11.2188ZM29.9063 17.6478C28.7563 17.5201 27.6618 17.0861 26.7368 16.391C25.8119 15.6959 25.0905 14.7653 24.6479 13.6963C24.2053 12.6273 24.0577 11.4591 24.2206 10.3137C24.3836 9.16821 24.8509 8.08746 25.574 7.18425L29.9063 11.5165V17.6478ZM30.9227 10.5L26.5905 6.16776C27.4937 5.44469 28.5745 4.9773 29.7199 4.8144C30.8654 4.65149 32.0336 4.79903 33.1026 5.24163C34.1716 5.68422 35.1022 6.40564 35.7972 7.33059C36.4923 8.25553 36.9264 9.35008 37.0541 10.5H30.9227Z" fill="black"/>
<path d="M32.7812 20.5625H33.5898C35.281 20.5606 36.9024 19.8879 38.0983 18.692C39.2942 17.4962 39.9668 15.8748 39.9688 14.1836V13.375H32.7812V20.5625ZM34.2188 14.8125H38.4914C38.3506 15.8964 37.8551 16.9032 37.0823 17.676C36.3094 18.4489 35.3026 18.9443 34.2188 19.0852V14.8125Z" fill="black"/>
<path d="M19.125 3.3125H6.1875C5.61583 3.31315 5.06776 3.54054 4.66352 3.94477C4.25929 4.34901 4.0319 4.89708 4.03125 5.46875V15.5312C4.0319 16.1029 4.25929 16.651 4.66352 17.0552C5.06776 17.4595 5.61583 17.6868 6.1875 17.6875H19.125C19.6967 17.6868 20.2447 17.4595 20.649 17.0552C21.0532 16.651 21.2806 16.1029 21.2812 15.5312V5.46875C21.2806 4.89708 21.0532 4.34901 20.649 3.94477C20.2447 3.54054 19.6967 3.31315 19.125 3.3125V3.3125ZM19.8438 15.5312C19.8435 15.7218 19.7677 15.9045 19.633 16.0392C19.4982 16.174 19.3156 16.2498 19.125 16.25H6.1875C5.99694 16.2498 5.81425 16.174 5.67951 16.0392C5.54476 15.9045 5.46897 15.7218 5.46875 15.5312V7.625H19.8438V15.5312ZM19.8438 6.1875H5.46875V5.46875C5.46897 5.27819 5.54476 5.0955 5.67951 4.96076C5.81425 4.82601 5.99694 4.75022 6.1875 4.75H19.125C19.3156 4.75022 19.4982 4.82601 19.633 4.96076C19.7677 5.0955 19.8435 5.27819 19.8438 5.46875V6.1875Z" fill="black"/>
<path d="M4.03125 19.8438H12.6562V21.2812H4.03125V19.8438Z" fill="black"/>
<path d="M4.03125 22.7188H10.5V24.1562H4.03125V22.7188Z" fill="black"/>
<path d="M4.03125 25.5938H10.5V27.0312H4.03125V25.5938Z" fill="black"/>
<path d="M32.7812 22.7188H39.9688V24.1562H32.7812V22.7188Z" fill="black"/>
<path d="M32.7812 25.5938H39.9688V27.0312H32.7812V25.5938Z" fill="black"/>
<path d="M10.2895 13.5854L8.64139 11.9374L10.2895 10.2894L9.27299 9.27295L6.60858 11.9374L9.27299 14.6019L10.2895 13.5854Z" fill="black"/>
<path d="M11.2599 13.8284L12.6959 10.2365L14.0299 10.7698L12.5939 14.3617L11.2599 13.8284Z" fill="black"/>
<path d="M16.0395 14.6019L18.7039 11.9374L16.0395 9.27295L15.023 10.2894L16.6711 11.9374L15.023 13.5854L16.0395 14.6019Z" fill="black"/>
</svg>
