<svg width="667" height="497" viewBox="0 0 667 497" fill="none" xmlns="http://www.w3.org/2000/svg">
<g clip-path="url(#clip0_201_200)">
<path d="M0 436.93H666.667V436.596H0V436.93Z" fill="#E7E8E5"/>
<path d="M148.889 448.115H104.726V447.781H148.889V448.115Z" fill="#E7E8E5"/>
<path d="M218 457.73H177.777V457.397H218V457.73Z" fill="#E7E8E5"/>
<path d="M126.807 460.496H75.8063V460.163H126.807V460.496" fill="#E7E8E5"/>
<path d="M599.868 459.768H578.667V459.435H599.868V459.768Z" fill="#E7E8E5"/>
<path d="M574.389 459.768H521.963V459.435H574.389V459.768Z" fill="#E7E8E5"/>
<path d="M373.777 447.948H333.333V447.614H373.777V447.948Z" fill="#E7E8E5"/>
<path d="M379.555 447.948H475.683V447.613H379.555V447.948Z" fill="#E7E8E5"/>
<path d="M58.5536 0.334983C54.5401 0.334983 51.276 3.60036 51.276 7.61102V369.52C51.276 373.533 54.5401 376.798 58.5536 376.798H316.019C320.029 376.798 323.295 373.533 323.295 369.52V7.61102C323.295 3.60036 320.029 0.334983 316.019 0.334983H58.5536ZM316.019 377.131H58.5536C54.3568 377.131 50.9426 373.718 50.9426 369.52V7.61102C50.9426 3.41636 54.3568 0.00165008 58.5536 0.00165008H316.019C320.213 0.00165008 323.628 3.41636 323.628 7.61102V369.52C323.628 373.718 320.213 377.131 316.019 377.131Z" fill="#E7E8E5"/>
<path d="M346.949 0.334983C342.937 0.334983 339.673 3.60036 339.673 7.61102V369.52C339.673 373.533 342.937 376.798 346.949 376.798H604.415C608.427 376.798 611.692 373.533 611.692 369.52V7.61102C611.692 3.60036 608.427 0.334983 604.415 0.334983H346.949ZM604.415 377.131H346.949C342.753 377.131 339.34 373.718 339.34 369.52V7.61102C339.34 3.41636 342.753 0.00165008 346.949 0.00165008H604.415C608.611 0.00165008 612.025 3.41636 612.025 7.61102V369.52C612.025 373.718 608.611 377.131 604.415 377.131Z" fill="#E7E8E5"/>
<path d="M391.185 436.596H352.831V281.679H391.185V436.596Z" fill="#E2E2E0"/>
<path d="M375.24 436.596H391.185V409.875H358.521L375.24 436.596Z" fill="#F3F2F1"/>
<path d="M114.161 436.596H75.8063V281.679H114.161V436.596" fill="#E2E2E0"/>
<path d="M391.185 427.397H100.245V281.679H391.185V427.397Z" fill="#F3F2F1"/>
<path d="M113.281 325.076H378.148V295.875H113.281V325.076ZM379.481 326.41H111.948V294.542H379.481V326.41Z" fill="#E7E8E5"/>
<path d="M116.19 436.596H100.245V409.875H132.909L116.19 436.596Z" fill="#F3F2F1"/>
<path d="M113.281 413.204H378.148V339.938H113.281V413.204ZM379.481 414.538H111.948V338.604H379.481V414.538" fill="#E7E8E5"/>
<path d="M240.653 241.376H543.823V31.4293H240.653V241.376Z" fill="#E2E2E0"/>
<path d="M246.225 241.376H549.395V31.4293H246.225V241.376Z" fill="#F3F2F1"/>
<path d="M256.228 230.777H539.392V42.028H256.228V230.777Z" fill="white"/>
<path d="M535.18 230.777H539.392V42.028H535.18V230.777Z" fill="#E2E2E0"/>
<path d="M250.363 66.0537H545.257V58.9391H250.363V66.0537Z" fill="#F3F2F1"/>
<path d="M532.465 257.602H544.44V241.376H532.465V257.602Z" fill="#F7F7F5"/>
<path d="M544.44 241.376H532.465V230.777H539.392V66.0533H544.44V241.376Z" fill="#EFEFED"/>
<path d="M532.465 230.777H535.18V66.0534H532.465V230.777Z" fill="#F6F6F4"/>
<path d="M535.18 230.777H539.392V66.0534H535.18V230.777Z" fill="#E7E8E5"/>
<path d="M544.44 31.4297H532.465V24.4163H544.44V31.4297Z" fill="#F7F7F5"/>
<path d="M544.44 58.939H539.392V42.0283H532.465V31.4297H543.823H544.44V58.939" fill="#EFEFED"/>
<path d="M535.18 58.939H532.465V42.0283H539.392H535.18V58.939" fill="#F6F6F4"/>
<path d="M535.18 58.939H539.392V42.0286H535.18V58.939Z" fill="#E7E8E5"/>
<path d="M544.44 66.0537H532.465V58.939H544.44V66.0537Z" fill="#EFEFED"/>
<path d="M529.229 232.543L528.513 230.778H529.229V232.543Z" fill="#EFEFED"/>
<path d="M529.229 230.777H528.513L517.256 203.029V66.0534H529.229V230.777" fill="#F6F6F4"/>
<path d="M517.256 31.4297H529.229V24.4166H517.256V31.4297Z" fill="#F7F7F5"/>
<path d="M517.256 42.0283H529.229V31.4294H517.256V42.0283Z" fill="#EFEFED"/>
<path d="M517.256 58.939H529.229V42.0286H517.256V58.939Z" fill="#F6F6F4"/>
<path d="M517.256 66.0537H529.229V58.9391H517.256V66.0537Z" fill="#EFEFED"/>
<path d="M508.056 233.228C507.512 232.397 506.96 231.577 506.407 230.777H508.335C508.241 231.603 508.149 232.421 508.056 233.228Z" fill="#EFEFED"/>
<path d="M508.335 230.777H506.407C504.984 228.72 503.531 226.769 502.047 224.913V66.0534H514.02V195.053L511.881 189.781C510.825 205.831 509.623 219.271 508.335 230.777" fill="#F6F6F4"/>
<path d="M502.047 31.4297H514.02V24.4166H502.047V31.4297Z" fill="#F7F7F5"/>
<path d="M502.047 42.0283H514.02V31.4294H502.047V42.0283Z" fill="#EFEFED"/>
<path d="M502.047 58.939H514.02V42.0286H502.047V58.939Z" fill="#F6F6F4"/>
<path d="M502.047 66.0537H514.02V58.9391H502.047V66.0537Z" fill="#EFEFED"/>
<path d="M498.811 221.071C494.947 216.715 490.924 212.984 486.836 209.835V66.0535H498.811V221.071Z" fill="#F6F6F4"/>
<path d="M486.836 31.4297H498.811V24.4166H486.836V31.4297Z" fill="#F7F7F5"/>
<path d="M486.836 42.0283H498.811V31.4294H486.836V42.0283Z" fill="#EFEFED"/>
<path d="M486.836 58.939H498.811V42.0286H486.836V58.939Z" fill="#F6F6F4"/>
<path d="M486.836 66.0537H498.811V58.9391H486.836V66.0537Z" fill="#EFEFED"/>
<path d="M483.601 207.472C481.376 205.935 479.136 204.562 476.896 203.347C475.055 195.05 473.252 186.903 471.627 179.551V139.988L471.789 140.055C474.997 134.24 477.515 128.338 479.175 121.656C479.956 118.298 480.583 114.799 480.303 110.65C480.14 108.575 479.751 106.254 478.469 103.746C478.156 103.13 477.749 102.482 477.329 101.895L476.588 100.89L475.1 98.8775C473.967 97.4162 472.808 95.9882 471.627 94.5895V66.0535H483.601V207.472" fill="#F6F6F4"/>
<path d="M471.627 31.4297H483.602V24.4166H471.627V31.4297Z" fill="#F7F7F5"/>
<path d="M471.627 42.0283H483.602V31.4294H471.627V42.0283Z" fill="#EFEFED"/>
<path d="M471.627 58.939H483.602V42.0286H471.627V58.939Z" fill="#F6F6F4"/>
<path d="M471.627 66.0537H483.602V58.9391H471.627V66.0537Z" fill="#EFEFED"/>
<path d="M468.391 164.907C466.301 155.439 464.955 149.321 464.955 149.321C464.664 143.869 462.228 124.652 457.828 100.645C460.149 102.929 462.399 105.252 464.553 107.611L465.985 109.248L466.703 110.068L466.836 110.175C467.056 110.408 467.417 111.173 467.631 112.184C468.06 114.24 468.079 117.011 467.871 119.792C467.431 125.403 466.264 131.48 464.976 137.283L468.391 138.672V164.907M468.391 90.8948C467.068 89.4348 465.721 88.0054 464.353 86.6054L465.097 85.3974C465.097 85.3974 461.68 79.7481 456.417 74.4868V66.0534H468.391V90.8948Z" fill="#F6F6F4"/>
<path d="M456.417 31.4297H468.391V24.4166H456.417V31.4297Z" fill="#F7F7F5"/>
<path d="M456.417 42.0283H468.391V31.4294H456.417V42.0283Z" fill="#EFEFED"/>
<path d="M456.417 58.939H468.391V42.0286H456.417V58.939Z" fill="#F6F6F4"/>
<path d="M456.417 66.0537H468.391V58.9391H456.417V66.0537Z" fill="#EFEFED"/>
<path d="M441.207 257.571V252.576C442.585 253.671 444.011 254.756 445.465 255.821C444 256.344 442.579 256.929 441.207 257.571" fill="#F7F7F5"/>
<path d="M441.207 196.556V191.203C441.649 192.892 442.097 194.603 442.552 196.331C442.1 196.399 441.651 196.475 441.207 196.556ZM453.181 71.5321C450.151 69.0268 446.715 66.9295 443.087 66.0535H453.181V71.5321Z" fill="#F6F6F4"/>
<path d="M441.207 31.4297H453.181V24.4166H441.207V31.4297Z" fill="#F7F7F5"/>
<path d="M441.207 42.0283H453.181V31.4294H441.207V42.0283Z" fill="#EFEFED"/>
<path d="M441.207 58.939H453.181V42.0286H441.207V58.939Z" fill="#F6F6F4"/>
<path d="M453.181 66.0537H443.087C442.465 65.903 441.839 65.7884 441.207 65.7137V58.939H453.181V66.0537Z" fill="#EFEFED"/>
<path d="M437.972 257.602H425.997V241.376H429.129C431.715 244.26 434.692 247.119 437.972 249.915V257.602Z" fill="#F7F7F5"/>
<path d="M429.129 241.376H425.997V237.615C426.96 238.868 428.009 240.125 429.129 241.376Z" fill="#EFEFED"/>
<path d="M425.997 203.525V153.156L431.312 152.633C431.339 152.744 434.093 163.732 437.972 178.752V197.296C433.261 198.591 429.176 200.721 425.997 203.525M425.997 68.4521V66.0534H436.387C436.187 66.1174 435.988 66.1894 435.795 66.268L435.6 66.3067C432.756 66.8907 429.372 67.6347 425.997 68.4521" fill="#F6F6F4"/>
<path d="M425.997 31.4297H437.972V24.4166H425.997V31.4297Z" fill="#F7F7F5"/>
<path d="M425.997 42.0283H437.972V31.4294H425.997V42.0283Z" fill="#EFEFED"/>
<path d="M425.997 58.939H437.972V42.0286H425.997V58.939Z" fill="#F6F6F4"/>
<path d="M436.387 66.0537H425.997V58.939H437.972V65.7017C437.421 65.771 436.892 65.8897 436.387 66.0537" fill="#EFEFED"/>
<path d="M410.788 257.602H422.762V241.376H410.788V257.602Z" fill="#F7F7F5"/>
<path d="M422.763 241.376H410.788V230.777H421.608C421.961 231.472 422.348 232.171 422.763 232.871V241.376Z" fill="#EFEFED"/>
<path d="M421.608 230.777H410.788V136.581C411.651 142.315 412.363 148.303 412.816 154.453L422.763 153.475V207.032C419.44 211.512 417.983 217.127 419.075 223.491C419.483 225.868 420.348 228.305 421.608 230.777ZM410.788 73.0747V66.0534H422.763V69.26C419.495 70.1027 416.407 70.9893 414.027 71.836C412.923 72.2293 411.837 72.648 410.788 73.0747" fill="#F6F6F4"/>
<path d="M410.788 31.4297H422.762V24.4166H410.788V31.4297Z" fill="#F7F7F5"/>
<path d="M410.788 42.0283H422.762V31.4294H410.788V42.0283Z" fill="#EFEFED"/>
<path d="M410.788 58.939H422.762V42.0286H410.788V58.939Z" fill="#F6F6F4"/>
<path d="M410.788 66.0537H422.762V58.9391H410.788V66.0537Z" fill="#EFEFED"/>
<path d="M395.579 257.602H407.552V241.376H395.579V257.602Z" fill="#F7F7F5"/>
<path d="M395.579 241.376H407.552V230.778H395.579V241.376Z" fill="#EFEFED"/>
<path d="M407.552 230.777H395.579V130.393C399.559 124.581 402.909 118.636 406.077 112.608C406.101 112.561 406.125 112.513 406.151 112.465C406.347 113.325 406.543 114.196 406.74 115.083C407.012 116.309 407.283 117.56 407.552 118.833V230.777ZM395.579 100.237V66.0534H407.552V74.4693C405.46 75.416 403.653 76.32 402.343 77.004C400.743 77.8373 399.651 79.392 399.447 81.1854C399.269 82.7494 399.729 85.536 400.576 89.3294C398.964 92.9614 397.291 96.6187 395.579 100.237Z" fill="#F6F6F4"/>
<path d="M395.579 31.4297H407.552V24.4166H395.579V31.4297Z" fill="#F7F7F5"/>
<path d="M395.579 42.0283H407.552V31.4294H395.579V42.0283Z" fill="#EFEFED"/>
<path d="M395.579 58.939H407.552V42.0286H395.579V58.939Z" fill="#F6F6F4"/>
<path d="M395.579 66.0537H407.552V58.9391H395.579V66.0537Z" fill="#EFEFED"/>
<path d="M392.343 257.602H380.948C380.756 257.422 380.563 257.242 380.368 257.064V241.376H392.343V257.602Z" fill="#F7F7F5"/>
<path d="M380.368 241.376H392.342V230.778H380.368V241.376Z" fill="#EFEFED"/>
<path d="M392.343 230.777H380.368V145.248C381.477 144.725 382.605 144.132 383.767 143.4C384.832 142.719 385.936 141.932 387.085 140.841C387.959 139.975 388.709 139.193 389.443 138.357C390.469 137.2 391.431 136.035 392.343 134.861V230.777M380.368 127.868V66.0534H392.343V106.928C390.839 109.971 389.296 112.98 387.684 115.917C385.908 119.18 384.061 122.392 382.08 125.359C381.521 126.223 380.949 127.061 380.368 127.868" fill="#F6F6F4"/>
<path d="M380.368 31.4297H392.342V24.4166H380.368V31.4297Z" fill="#F7F7F5"/>
<path d="M380.368 42.0283H392.342V31.4294H380.368V42.0283Z" fill="#EFEFED"/>
<path d="M380.368 58.939H392.342V42.0286H380.368V58.939Z" fill="#F6F6F4"/>
<path d="M380.368 66.0537H392.342V58.9391H380.368V66.0537Z" fill="#EFEFED"/>
<path d="M377.133 254.273C373.432 251.269 369.42 248.628 365.159 246.409V241.376H377.133V254.273Z" fill="#F7F7F5"/>
<path d="M365.159 241.376H377.133V230.778H365.159V241.376Z" fill="#EFEFED"/>
<path d="M377.133 230.777H365.159V150.217C367.313 149.719 369.472 149.156 371.64 148.517C373.463 147.976 375.291 147.372 377.133 146.641V230.777M365.159 138.523V66.0534H377.133V131.883C376.917 132.091 376.651 132.323 376.351 132.556C375.291 133.405 373.848 134.293 372.344 135.107C370.823 135.919 369.205 136.711 367.547 137.476C366.759 137.829 365.961 138.177 365.159 138.523Z" fill="#F6F6F4"/>
<path d="M365.159 31.4297H377.133V24.4166H365.159V31.4297Z" fill="#F7F7F5"/>
<path d="M365.159 42.0283H377.133V31.4294H365.159V42.0283Z" fill="#EFEFED"/>
<path d="M365.159 58.939H377.133V42.0286H365.159V58.939Z" fill="#F6F6F4"/>
<path d="M365.159 66.0537H377.133V58.9391H365.159V66.0537Z" fill="#EFEFED"/>
<path d="M361.923 244.828C358.965 243.475 355.896 242.319 352.736 241.376H361.923V244.828Z" fill="#F7F7F5"/>
<path d="M361.923 241.376H352.736C351.813 241.1 350.887 240.844 349.948 240.607V230.777H361.923V241.376Z" fill="#EFEFED"/>
<path d="M361.923 230.777H349.948V198.348L355.919 172.901L349.948 163.271V152.725C353.979 152.301 357.955 151.713 361.923 150.916V230.777ZM349.948 144.457V66.0534H361.923V139.875C358.012 141.469 353.979 142.984 349.948 144.457Z" fill="#F6F6F4"/>
<path d="M349.948 31.4297H361.923V24.4166H349.948V31.4297Z" fill="#F7F7F5"/>
<path d="M349.948 42.0283H361.923V31.4294H349.948V42.0283Z" fill="#EFEFED"/>
<path d="M349.948 58.939H361.923V42.0286H349.948V58.939Z" fill="#F6F6F4"/>
<path d="M349.948 66.0537H361.923V58.9391H349.948V66.0537Z" fill="#EFEFED"/>
<path d="M346.713 239.865C344.653 239.444 342.561 239.112 340.44 238.873L342.34 230.777H346.713V239.865Z" fill="#EFEFED"/>
<path d="M346.713 230.777H342.34L346.713 212.136V230.777ZM346.713 158.052L334.739 138.735V66.0534H346.713V145.633C346.635 145.661 346.555 145.691 346.475 145.72L346.713 146.868V158.052Z" fill="#F6F6F4"/>
<path d="M346.713 31.4297H339.673V24.4163H346.713V31.4297ZM339.34 31.4297H334.739V24.4163H339.34V31.4297Z" fill="#F7F7F5"/>
<path d="M339.34 31.4297H339.673V24.4166H339.34V31.4297Z" fill="#EBEBE8"/>
<path d="M334.739 42.0283H346.714V31.4294H334.739V42.0283Z" fill="#EFEFED"/>
<path d="M334.739 58.939H346.714V42.0286H334.739V58.939Z" fill="#F6F6F4"/>
<path d="M334.739 66.0537H346.714V58.9391H334.739V66.0537Z" fill="#EFEFED"/>
<path d="M331.504 133.516L326.829 125.976L319.529 124.263V66.0535H331.504V133.516" fill="#F6F6F4"/>
<path d="M331.504 31.4297H323.628V24.4163H331.504V31.4297ZM323.295 31.4297H319.529V24.4163H323.295V31.4297Z" fill="#F7F7F5"/>
<path d="M323.295 31.4297H323.628V24.4166H323.295V31.4297Z" fill="#EBEBE8"/>
<path d="M319.529 42.0283H331.504V31.4294H319.529V42.0283Z" fill="#EFEFED"/>
<path d="M319.529 58.939H331.504V42.0286H319.529V58.939Z" fill="#F6F6F4"/>
<path d="M319.529 66.0537H331.504V58.9391H319.529V66.0537Z" fill="#EFEFED"/>
<path d="M171 56.5068H83.1312V216.299H171V56.5068Z" fill="#EDEDEB"/>
<path d="M189.869 56.5068H88.7994V216.299H189.869V56.5068Z" fill="#F3F2F1"/>
<path d="M92.9214 60.2987V212.505H185.748V60.2987H92.9214" fill="white"/>
<path d="M117.66 90.5908V182.213C117.66 184.245 119.307 185.892 121.34 185.892H157.331C159.361 185.892 161.009 184.245 161.009 182.213V90.5908C161.009 88.5588 159.361 86.9107 157.331 86.9107H121.34C119.307 86.9107 117.66 88.5588 117.66 90.5908" fill="#F3F2F1"/>
<path d="M511.881 189.782L529.853 234.079C529.336 362.202 535.125 369.585 535.179 391.624H489.807C488.177 284.384 504.073 308.495 511.881 189.782Z" fill="#E7E8E5"/>
<path d="M537.208 320.622C500.689 220.078 416.616 251.219 420.38 287.86C424.144 324.503 558.212 378.447 537.208 320.622Z" fill="#E7E8E5"/>
<path d="M523.404 378.604C503.479 313.806 450.5 324.386 450.497 354.162C450.495 383.939 534.863 415.871 523.404 378.604" fill="#E7E8E5"/>
<path d="M521.981 261.643C490.704 175.031 412.801 186.948 419.075 223.491C425.349 260.034 539.969 311.456 521.981 261.643" fill="#E7E8E5"/>
<path d="M522.199 222.792C525.099 163.782 466.659 139.494 470.708 174.759C474.756 210.024 520.531 256.732 522.199 222.792Z" fill="#E7E8E5"/>
<path d="M517.833 283.212C530.175 210.498 605.065 182.836 596.699 223.996C588.332 265.155 510.736 325.032 517.833 283.212" fill="#E7E8E5"/>
<path d="M511.528 242.104C496.984 165.853 564.265 131.969 566.201 168.731C568.137 205.495 519.892 285.957 511.528 242.104Z" fill="#E7E8E5"/>
<path d="M505.689 328.235C535.416 254.752 599.071 272.988 592.647 306.428C586.223 339.868 488.593 370.499 505.689 328.235" fill="#E7E8E5"/>
<path d="M520.36 379.551C519.697 332.143 562.728 319.89 563.239 347.351C563.749 374.814 520.741 406.816 520.36 379.551Z" fill="#E7E8E5"/>
<path d="M507.219 436.93C483.563 436.93 463.605 420.459 458.751 398.197C457.467 392.308 456.004 386.459 453.699 380.885L453.327 379.988H561.111L560.739 380.885C558.433 386.459 556.972 392.308 555.687 398.197C550.832 420.459 530.873 436.93 507.219 436.93" fill="#DADBD8"/>
<path d="M591.852 481.716C591.852 490.055 476.111 496.813 333.333 496.813C190.557 496.813 74.8146 490.055 74.8146 481.716C74.8146 473.377 190.557 466.618 333.333 466.618C476.111 466.618 591.852 473.377 591.852 481.716" fill="#F3F2F1"/>
<path d="M172.488 211.985L171.647 210.951C175.083 208.16 178.764 205.599 182.589 203.336L183.268 204.485C179.499 206.713 175.872 209.236 172.488 211.985" fill="#2D5BB2"/>
<path d="M145.112 250.092L143.864 249.626C148.385 237.534 155.612 226.308 164.763 217.162L165.705 218.104C156.689 227.116 149.568 238.178 145.112 250.092" fill="#2D5BB2"/>
<path d="M403.432 308.858C403.105 269.904 371.439 238.424 332.408 238.424C323.004 238.424 314.035 240.27 305.819 243.588C291.869 215.052 262.567 195.391 228.663 195.391C187.663 195.391 153.397 224.144 144.879 262.582C106.318 265.06 75.8063 297.104 75.8063 336.29C75.8063 377.095 108.884 410.172 149.688 410.172H384.781C413.707 410.172 437.155 386.726 437.155 357.799C437.155 335.446 423.145 316.375 403.432 308.858Z" fill="#2D5BB2"/>
<path d="M350.547 284.981H162.415C159.236 284.981 156.636 282.381 156.636 279.203C156.636 276.025 159.236 273.425 162.415 273.425H350.547C353.724 273.425 356.324 276.025 356.324 279.203C356.324 282.381 353.724 284.981 350.547 284.981Z" fill="#17282F"/>
<path d="M190.792 325.618C180.823 325.618 172.712 333.728 172.712 343.699C172.712 353.668 180.823 361.779 190.792 361.779H322.168C332.139 361.779 340.249 353.668 340.249 343.698C340.249 333.728 332.139 325.618 322.168 325.618H190.792ZM322.168 363.112H190.792C180.087 363.112 171.379 354.403 171.379 343.699C171.379 332.995 180.087 324.284 190.792 324.284H322.168C332.873 324.284 341.583 332.994 341.583 343.698C341.583 354.402 332.873 363.112 322.168 363.112" fill="white"/>
<path d="M221.475 358.445H190.792C182.681 358.445 176.045 351.809 176.045 343.699V343.697C176.045 335.587 182.681 328.951 190.792 328.951H221.475C229.585 328.951 236.223 335.587 236.223 343.697V343.699C236.223 351.809 229.585 358.445 221.475 358.445Z" fill="white"/>
<path d="M355.919 172.901L330.977 279.203H182.149L223.775 101.796L326.829 125.976L355.919 172.901Z" fill="#2D5BB2"/>
<path d="M330.977 279.203H182.149L223.775 101.796L326.829 125.976L355.919 172.901L349.948 198.348L346.713 212.136L342.34 230.777L330.977 279.203" fill="#CADDF3"/>
<path d="M336.507 192.661L223.463 166.137C221.841 165.757 220.828 164.119 221.208 162.5C221.588 160.879 223.224 159.864 224.845 160.244L337.889 186.768C339.509 187.148 340.525 188.784 340.144 190.405C339.764 192.027 338.127 193.041 336.507 192.661" fill="#2D5BB2"/>
<path d="M332.191 211.059L219.145 184.535C217.525 184.155 216.511 182.518 216.891 180.896C217.271 179.278 218.908 178.262 220.528 178.642L333.572 205.167C335.193 205.547 336.208 207.183 335.828 208.804C335.447 210.424 333.811 211.44 332.191 211.059" fill="#2D5BB2"/>
<path d="M327.873 229.456L214.829 202.934C213.208 202.554 212.193 200.916 212.575 199.295C212.955 197.675 214.591 196.66 216.212 197.04L329.256 223.563C330.876 223.944 331.891 225.582 331.511 227.202C331.131 228.823 329.493 229.836 327.873 229.456" fill="#2D5BB2"/>
<path d="M323.556 247.855L210.512 221.332C208.892 220.951 207.877 219.313 208.257 217.693C208.637 216.072 210.275 215.059 211.895 215.439L324.939 241.961C326.559 242.341 327.575 243.979 327.195 245.6C326.813 247.221 325.177 248.235 323.556 247.855" fill="#2D5BB2"/>
<path d="M274.299 255.708L206.195 239.728C204.575 239.348 203.56 237.712 203.94 236.091C204.32 234.471 205.957 233.455 207.579 233.836L275.681 249.815C277.301 250.195 278.316 251.834 277.936 253.452C277.556 255.074 275.919 256.088 274.299 255.708" fill="#2D5BB2"/>
<path d="M355.919 172.901L317.912 163.984L326.829 125.976L355.919 172.901Z" fill="#2D5BB2"/>
<path d="M382.396 308.696L386.88 279.203H467.387L462.901 308.696H382.396ZM457.581 343.699H377.075L381.557 314.204H462.064L457.581 343.699ZM452.259 378.7H371.752L376.237 349.206H456.743L452.259 378.7M446.937 413.702H366.432L370.916 384.207H451.421L446.937 413.702ZM441.616 448.703H361.109L365.593 419.21H446.1L441.616 448.703M381.453 273.842L349.851 481.716H356.091L360.273 454.211H440.779L436.597 481.716H442.837L474.441 273.842H381.453Z" fill="#17282F"/>
<path d="M427.273 448.703L422.789 419.21H503.295L507.78 448.703H427.273M417.468 384.207H497.973L502.457 413.702H421.951L417.468 384.207ZM412.145 349.206H492.652L497.136 378.7H416.631L412.145 349.206M406.824 314.204H487.331L491.815 343.699H411.308L406.824 314.204M401.503 279.203H482.009L486.493 308.696H405.987L401.503 279.203ZM487.435 273.842H394.447L426.051 481.716H432.292L428.109 454.211H508.616L512.799 481.716H519.039L487.435 273.842" fill="#17282F"/>
<path d="M519.039 481.716H512.799L508.616 454.211H428.109L432.292 481.716H426.051L413.837 401.38L411.227 384.207L394.447 273.842H466.604C467.368 275.591 468.163 277.38 468.983 279.203H401.503L405.987 308.696H482.945C483.853 310.543 484.763 312.383 485.667 314.204H468.305H462.064H406.824L411.308 343.699H491.815L488.061 319.007C491.18 325.238 494.209 331.198 496.973 336.583L519.039 481.716M422.789 419.21L427.273 448.703H507.78L503.295 419.21H452.341H446.1H422.789M417.468 384.207L421.951 413.702H502.457L497.973 384.207H451.579L451.443 381.023H451.436V381.016H441.641L441.779 384.207H417.468M412.145 349.206L416.631 378.7H497.136L492.652 349.206H462.984H456.743H412.145Z" fill="#6C7A7F"/>
<path d="M447.595 71.5013C450.261 73.556 452.609 75.616 455.045 77.7427C457.46 79.8547 459.787 82.0654 462.084 84.324C466.665 88.8454 471.043 93.6467 475.1 98.8773L476.588 100.889L477.329 101.895C477.749 102.481 478.156 103.129 478.469 103.745C479.751 106.253 480.14 108.575 480.303 110.649C480.583 114.799 479.956 118.297 479.175 121.656C477.515 128.337 474.997 134.24 471.789 140.055L464.976 137.283C466.264 131.48 467.431 125.403 467.871 119.792C468.079 117.011 468.06 114.24 467.631 112.184C467.417 111.173 467.056 110.408 466.836 110.175L466.703 110.068L465.985 109.248L464.553 107.611C460.604 103.285 456.333 99.0827 451.881 95.0174C447.477 90.956 442.819 86.8867 438.336 83.108L447.595 71.5013Z" fill="#872F37"/>
<path d="M467.673 134.525L460.019 139.804L469.401 145.456C469.401 145.456 474.212 140.849 472.149 136.577L467.673 134.525Z" fill="#872F37"/>
<path d="M456.203 148.62L463.268 152.587L469.401 145.456L460.019 139.804L456.203 148.62Z" fill="#872F37"/>
<path d="M395.395 43.6413C395.615 44.504 395.337 45.3199 394.775 45.4639C394.211 45.6079 393.575 45.0266 393.353 44.1653C393.132 43.3026 393.411 42.4866 393.973 42.3413C394.537 42.1973 395.173 42.78 395.395 43.6413" fill="#17282F"/>
<path d="M395.417 45.3002C395.417 45.3002 394.731 50.7776 393.188 53.7296C395.079 54.7629 397.505 53.4469 397.505 53.4469L395.417 45.3002" fill="#6B1317"/>
<path d="M397.225 38.0813L396.905 38.0613C394.735 37.2106 393.155 38.3106 393.139 38.3226C392.904 38.4893 392.577 38.4359 392.409 38.1999C392.241 37.9653 392.296 37.6386 392.531 37.4706C392.613 37.4119 394.593 36.0319 397.287 37.0879C397.556 37.1933 397.688 37.4959 397.583 37.7653C397.519 37.9279 397.383 38.0413 397.225 38.0813Z" fill="#17282F"/>
<path d="M422.733 46.0617C423.979 54.1937 425.724 66.6603 432.863 69.8163C432.863 69.8163 433.56 78.2697 419.444 83.3483C403.924 88.935 409.253 78.3137 409.253 78.3137C416.997 73.2417 414.517 67.0363 410.917 61.663L422.733 46.0617" fill="#872F37"/>
<path d="M434.197 68.1203C434.24 65.5696 431.596 61.1616 428.972 61.4576C426.084 61.783 415.04 65.8523 411.013 69.5709C406.987 73.2909 409.843 79.8149 409.843 79.8149L434.197 68.1203" fill="#17282F"/>
<path d="M517.143 375.913L516.967 376.14C516.861 376.316 516.837 376.488 516.893 376.665C517.021 377.082 517.223 377.105 517.289 377.113C517.975 377.194 519.373 375.763 520.213 374.54C519.253 374.784 517.763 375.275 517.143 375.913V375.913ZM519.336 376.332C518.639 377.055 517.852 377.645 517.235 377.573C516.976 377.544 516.629 377.385 516.449 376.801C516.356 376.496 516.395 376.194 516.568 375.902C517.321 374.637 520.533 373.985 520.669 373.957L520.904 374.052L520.916 374.303C520.653 374.748 520.04 375.605 519.336 376.332" fill="#2D5BB2"/>
<path d="M516.655 373.006L516.585 373.087C516.403 373.33 516.484 373.444 516.519 373.494C516.896 374.031 518.931 374.26 520.18 374.067C519.508 373.576 518.105 372.656 517.169 372.766C516.956 372.79 516.787 372.869 516.655 373.006V373.006ZM520.883 374.347L520.784 374.407C519.685 374.754 516.78 374.669 516.139 373.761C516.023 373.596 515.879 373.254 516.216 372.807C516.433 372.518 516.737 372.348 517.116 372.304C518.576 372.132 520.771 373.931 520.863 374.007L520.943 374.23L520.883 374.347Z" fill="#2D5BB2"/>
<path d="M437.128 402.303C436.965 402.303 436.815 402.319 436.68 402.355C436.467 402.414 436.317 402.52 436.225 402.68C436.061 402.968 436.121 403.112 436.18 403.194C436.636 403.827 439.112 403.84 440.933 403.583C440.025 403.118 438.273 402.303 437.128 402.303ZM438.681 404.203C437.424 404.203 436.211 404.03 435.804 403.464C435.661 403.267 435.549 402.931 435.823 402.45C435.976 402.182 436.224 401.999 436.559 401.908C438.188 401.464 441.611 403.415 441.756 403.499L441.869 403.736L441.687 403.927C441.061 404.052 439.853 404.203 438.681 404.203Z" fill="#2D5BB2"/>
<path d="M439.251 399.96L439.112 399.968C438.695 400.009 438.668 400.175 438.659 400.228C438.552 400.894 440.143 402.559 441.349 403.283C441.224 402.512 440.875 400.933 440.056 400.263C439.809 400.06 439.545 399.96 439.251 399.96ZM441.641 403.932L441.547 403.911C440.364 403.382 438.023 401.263 438.201 400.155C438.243 399.895 438.427 399.571 439.065 399.505C439.537 399.459 439.972 399.592 440.352 399.904C441.597 400.928 441.861 403.565 441.872 403.677L441.776 403.888L441.641 403.932" fill="#2D5BB2"/>
<path d="M452.412 403.7H442.616L441.641 381.016H451.436L452.412 403.7" fill="#872F37"/>
<path d="M530.9 370.474L521.833 373.771L510.319 353.451L519.384 350.154L530.9 370.474" fill="#872F37"/>
<path d="M520.408 372.872L528.06 364.964C528.339 364.676 528.78 364.62 529.121 364.831L536.724 369.495C537.512 369.978 537.633 371.082 536.979 371.736C534.259 374.451 532.8 375.635 529.435 379.114C527.364 381.252 521.203 388.506 518.344 391.461C515.548 394.35 512.191 391.973 513.096 390.507C517.157 383.936 519.616 377.68 519.736 374.433C519.757 373.849 520 373.292 520.408 372.872" fill="#17282F"/>
<path d="M442.681 402.566H453.379C453.779 402.566 454.125 402.843 454.212 403.233L456.147 411.942C456.348 412.843 455.663 413.699 454.737 413.683C450.879 413.618 445.304 413.392 440.453 413.392C434.783 413.392 432.305 413.702 425.655 413.702C421.633 413.702 420.517 409.635 422.2 409.268C429.863 407.591 433.7 407.411 440.321 403.33C441.041 402.886 441.836 402.566 442.681 402.566Z" fill="#17282F"/>
<path d="M416.071 90.9574C414.565 94.7534 412.965 98.2974 411.308 101.917C409.669 105.523 407.896 109.069 406.077 112.608C402.368 119.665 398.409 126.611 393.48 133.36C392.239 135.041 390.907 136.708 389.443 138.357C388.709 139.193 387.959 139.975 387.085 140.841C385.936 141.932 384.832 142.719 383.767 143.4C381.628 144.747 379.603 145.629 377.596 146.455C375.597 147.271 373.616 147.931 371.64 148.517C363.744 150.84 355.98 152.183 347.969 152.921L346.475 145.72C353.609 143.137 360.868 140.468 367.547 137.476C369.205 136.711 370.823 135.919 372.344 135.107C373.848 134.293 375.291 133.405 376.351 132.556C376.884 132.143 377.312 131.728 377.536 131.449C377.997 130.911 378.563 130.267 379.064 129.607C380.096 128.289 381.108 126.861 382.08 125.359C384.061 122.392 385.908 119.18 387.684 115.917C389.476 112.653 391.181 109.299 392.844 105.911C396.159 99.1587 399.372 92.1521 402.336 85.3187L416.071 90.9574" fill="#872F37"/>
<path d="M438.424 65.655C452.485 64.5564 465.097 85.3977 465.097 85.3977L454.995 101.796C454.995 101.796 444.165 97.8164 435.02 89.887C425.439 81.5804 428.823 66.4057 438.424 65.655" fill="#2D5BB2"/>
<path d="M399.447 81.1856C398.668 88.0523 410.16 118.42 412.816 154.454L464.955 149.322C464.585 142.408 460.767 113.359 453.868 80.4763C451.967 71.4083 444.932 64.4189 435.852 66.2563L435.6 66.3069C429.035 67.6563 419.595 69.8549 414.027 71.8363C409.297 73.5189 404.884 75.6789 402.343 77.0043C400.743 77.8376 399.651 79.3923 399.447 81.1856" fill="#2D5BB2"/>
<path d="M406.151 115.083H406.74V112.465H406.151V115.083Z" fill="#A0A3A2"/>
<path d="M406.151 112.465C405.827 111.049 405.505 109.667 405.188 108.324C405.507 109.668 405.828 111.048 406.151 112.464C406.151 112.464 406.151 112.464 406.151 112.465" fill="#581C22"/>
<path d="M407.439 118.277C407.207 117.195 406.973 116.129 406.74 115.083C406.544 114.197 406.348 113.324 406.151 112.464C405.828 111.048 405.507 109.668 405.188 108.324C405.035 107.677 404.883 107.039 404.731 106.409L414 98.5827C413.84 98.8094 415.371 116.397 407.439 118.277" fill="#2D5BB2"/>
<path d="M416.444 84.5831C420.448 98.3017 405.635 116.608 405.635 116.608L390.727 107.007C390.727 107.007 390.627 94.4444 395.389 84.6204C401.423 72.1737 413.589 74.8004 416.444 84.5831" fill="#2D5BB2"/>
<path d="M346.723 144.456L340.739 143.637L340.825 156.149C340.825 156.149 348.895 156.968 353.376 151.417L352.489 149.059C351.557 146.583 349.344 144.815 346.723 144.456" fill="#872F37"/>
<path d="M330.447 146.528L334.284 156.713L340.825 156.149L340.739 143.637L330.447 146.528" fill="#872F37"/>
<path d="M451.989 393.776H451.985L451.573 384.207H451.579L451.989 393.776" fill="#111D23"/>
<path d="M451.579 384.207H451.573L451.436 381.023H451.443L451.579 384.207Z" fill="#535F64"/>
<path d="M442.189 393.776L442.071 391.005L442.189 393.776Z" fill="#C3C5C2"/>
<path d="M451.985 393.776H442.189L442.071 391.005L441.643 381.023H451.436L451.573 384.207L451.985 393.776" fill="#682329"/>
<path d="M523.648 357.676L522.795 356.172L522.8 356.17L523.649 357.67C523.649 357.671 523.648 357.674 523.648 357.676" fill="#B1B3B1"/>
<path d="M525.324 360.633L523.648 357.676C523.648 357.673 523.649 357.671 523.649 357.669L525.329 360.631L525.324 360.633" fill="#B1B3B1"/>
<path d="M516.7 364.704L514.024 359.985L522.795 356.172L523.648 357.676L525.324 360.633L516.7 364.704" fill="#682329"/>
<path d="M423.685 34.4442C425.749 45.2002 427.503 51.3895 423.548 58.1975C417.599 68.4348 403.284 66.9348 398.048 57.0122C393.335 48.0802 390.752 31.9908 400.037 25.1188C409.187 18.3508 421.621 23.6868 423.685 34.4442" fill="#872F37"/>
<path d="M405.556 41.6202C399 44.8975 398.853 34.4255 399.409 32.2028C396.944 34.5641 393.611 36.9535 387.556 34.3415C380.116 31.1348 382.223 22.7308 387.556 22.8415C387.556 22.8415 383.605 15.2361 392.312 14.4361C397.156 13.9908 402.889 16.0641 402.889 16.0641C402.889 16.0641 406.135 7.57749 414.023 11.6882C418.204 13.8668 421.529 20.2868 421.529 20.2868C421.529 20.2868 438.529 22.8055 429.307 31.6948C431.399 36.2495 430.288 51.0868 424.888 57.4335C422.528 60.2055 402.333 59.3975 405.556 41.6202" fill="#17282F"/>
<path d="M418.589 24.6201C418.589 24.6201 421.667 20.3748 421.916 10.5641C429.109 18.3774 418.589 24.6201 418.589 24.6201Z" fill="#17282F"/>
<path d="M408.745 41.0189C408.987 43.8775 408.056 46.7335 406.727 48.7082C404.725 51.6749 402.004 50.4029 401.12 47.2695C400.323 44.4495 400.404 39.5042 403.105 37.6362C405.767 35.7962 408.469 37.7495 408.745 41.0189Z" fill="#872F37"/>
<path d="M431.311 152.632C431.311 152.632 449.708 226.04 458.528 253.351C468.188 283.259 510.081 361.699 510.081 361.699L526.525 354.551C526.525 354.551 494.82 283.128 488.045 253.241C480.693 220.805 464.955 149.321 464.955 149.321L431.311 152.632" fill="#17282F"/>
<path d="M505.215 356.296L510.6 364.008L529.06 355.847L525.331 348.214L505.215 356.296Z" fill="#2D5BB2"/>
<path d="M458.173 252.259C456.148 245.887 453.66 237.283 451.024 227.785C453.659 237.271 456.145 245.867 458.172 252.24C458.172 252.245 458.173 252.252 458.173 252.259" fill="#979999"/>
<path d="M458.172 252.24C456.145 245.867 453.659 237.271 451.024 227.786C446.633 211.974 441.832 193.687 438.071 179.115C438.747 178.69 439.517 178.462 440.395 178.462C440.564 178.462 440.739 178.471 440.916 178.488C453.951 179.735 457.296 227.548 458.172 252.24" fill="#0F191D"/>
<path d="M412.816 154.454C412.816 154.454 414.932 229.812 418.919 259.435C423.065 290.246 438.4 388.804 438.4 388.804H454.995C454.995 388.804 451.163 289.304 448.908 258.866C446.449 225.68 447.088 151.08 447.088 151.08L412.816 154.454Z" fill="#17282F"/>
<path d="M435.1 381.021L436.417 391.065L456.589 390.372L456.779 381.016L435.1 381.021" fill="#2D5BB2"/>
</g>
<defs>
<clipPath id="clip0_201_200">
<rect width="666.667" height="496.813" fill="white"/>
</clipPath>
</defs>
</svg>
